<svg width="20" height="24" viewBox="0 0 20 24" fill="none" xmlns="http://www.w3.org/2000/svg">
<path fill-rule="evenodd" clip-rule="evenodd" d="M1.40456 11.4064C1.40456 9.37768 2.00761 7.33628 3.43733 6.18349C5.02284 4.90556 7.34456 5.62226 8.74413 6.76494C11.1902 8.7621 12.9893 12.3545 12.9893 15.5208C12.9893 17.3473 12.8913 18.5419 12.0332 20.0448C10.2002 23.2516 6.36964 21.8081 4.4223 19.4785C2.74006 17.4649 1.4033 14.569 1.4033 11.4077L1.40456 11.4064ZM14.4216 16.3728C14.3864 18.0691 13.973 19.7199 13.0182 21.1028C12.0219 22.5463 10.7681 23.2238 9.44643 23.3376C5.99525 23.3376 3.16596 20.941 1.67719 17.9212C-0.104311 14.3074 -0.904603 9.7 1.51261 6.16706C1.86564 5.65007 2.55035 5.03323 3.08681 4.73365C7.04681 2.52541 11.1789 6.29346 12.8549 9.69242C13.8964 11.8059 14.4216 14.0166 14.4216 16.3728Z" fill="#5105B2"/>
<path fill-rule="evenodd" clip-rule="evenodd" d="M5.21993 8.59479C5.21993 6.6899 5.41341 4.86465 6.36446 3.43883C6.93359 2.58562 7.54543 1.9397 8.58568 1.62749C12.812 0.359672 16.61 6.4826 17.7181 9.80319C18.4744 12.0721 18.7131 14.5357 18.2332 16.8868C17.8412 18.8043 16.5434 21.1427 14.2857 21.1427C8.92866 21.1427 5.22119 13.2363 5.22119 8.59479H5.21993ZM6.10189 16.6213C7.13837 18.4327 8.0844 19.5387 9.66488 20.8533C12.3007 23.0464 16.2431 23.4256 18.3462 20.2251C22.0638 14.5648 18.3626 3.6474 12.3233 0.599837C9.53674 -0.554217 6.84313 -0.142145 5.15335 2.70191C2.71352 6.80872 3.84926 12.6877 6.10063 16.6213H6.10189Z" fill="#7000FF"/>
</svg>
