<svg width="55" height="65" viewBox="0 0 55 65" fill="none" xmlns="http://www.w3.org/2000/svg">
<path fill-rule="evenodd" clip-rule="evenodd" d="M3.86255 31.3683C3.86255 25.7892 5.52093 20.1753 9.45267 17.0052C13.8128 13.4909 20.1976 15.4618 24.0464 18.6042C30.7732 24.0964 35.7207 33.9753 35.7207 42.6829C35.7207 47.7058 35.4512 50.9907 33.0915 55.1238C28.0507 63.9425 17.5165 59.9729 12.1614 53.5665C7.53517 48.0291 3.85909 40.0654 3.85909 31.3718L3.86255 31.3683ZM39.6593 45.0258C39.5626 49.6907 38.4259 54.2304 35.8002 58.0332C33.0604 62.0029 29.6123 63.8661 25.9777 64.1789C16.487 64.1789 8.7064 57.5883 4.61227 49.284C-0.286855 39.3459 -2.48766 26.6756 4.15967 16.96C5.13052 15.5383 7.01347 13.8419 8.48873 13.0181C19.3788 6.94542 30.7421 17.3076 35.351 26.6547C38.2152 32.4667 39.6593 38.5464 39.6593 45.0258Z" fill="#ECECEC"/>
<path fill-rule="evenodd" clip-rule="evenodd" d="M14.3546 23.6362C14.3546 18.3978 14.8866 13.3783 17.502 9.45731C19.0671 7.11096 20.7497 5.33469 23.6104 4.4761C35.2329 0.989603 45.6772 17.8277 48.7245 26.9593C50.8043 33.1989 51.4608 39.9737 50.141 46.4392C49.0631 51.7124 45.4941 58.1431 39.2855 58.1431C24.5536 58.1431 14.358 36.4003 14.358 23.6362H14.3546ZM16.78 45.7092C19.6303 50.6904 22.2319 53.732 26.5782 57.3471C33.8267 63.3781 44.6683 64.4209 50.4519 55.6195C60.6752 40.0537 50.4969 10.0309 33.8889 1.65006C26.2258 -1.5236 18.8184 -0.390397 14.1715 7.43076C7.46194 18.7245 10.5852 34.8917 16.7765 45.7092H16.78Z" fill="white"/>
</svg>
