<svg width="20" height="20" viewBox="0 0 20 20" fill="none" xmlns="http://www.w3.org/2000/svg">
<circle cx="10" cy="10" r="10" fill="#F9F4FF"/>
<path fill-rule="evenodd" clip-rule="evenodd" d="M5.8417 9.75738C5.8417 8.81245 6.12258 7.86162 6.7885 7.32469C7.52698 6.72947 8.60837 7.06329 9.26025 7.59551C10.3996 8.52573 11.2375 10.1989 11.2375 11.6737C11.2375 12.5245 11.1919 13.0808 10.7922 13.7809C9.93846 15.2745 8.15428 14.6021 7.24727 13.5171C6.46373 12.5792 5.84112 11.2304 5.84112 9.75797L5.8417 9.75738ZM11.9046 12.0706C11.8882 12.8606 11.6957 13.6295 11.251 14.2736C10.787 14.946 10.203 15.2615 9.58736 15.3145C7.9799 15.3145 6.66211 14.1983 5.96868 12.7918C5.13892 11.1085 4.76616 8.96258 5.89203 7.31704C6.05646 7.07624 6.37537 6.78893 6.62524 6.6494C8.46969 5.62087 10.3943 7.37591 11.1749 8.95904C11.66 9.94342 11.9046 10.9731 11.9046 12.0706Z" fill="#5105B2"/>
<path fill-rule="evenodd" clip-rule="evenodd" d="M7.61892 8.44798C7.61892 7.56074 7.70904 6.71059 8.15201 6.04649C8.41709 5.64909 8.70207 5.34824 9.18659 5.20282C11.1551 4.61231 12.9241 7.46419 13.4402 9.01081C13.7924 10.0676 13.9036 11.2151 13.6801 12.3101C13.4975 13.2033 12.893 14.2924 11.8415 14.2924C9.34634 14.2924 7.61951 10.6098 7.61951 8.44798H7.61892ZM8.02971 12.1865C8.51248 13.0302 8.95311 13.5453 9.68925 14.1576C10.9169 15.1791 12.7532 15.3557 13.7328 13.865C15.4643 11.2286 13.7404 6.14363 10.9275 4.72417C9.62956 4.18665 8.37496 4.37858 7.58791 5.70325C6.45152 7.61608 6.98051 10.3543 8.02913 12.1865H8.02971Z" fill="#7000FF"/>
</svg>
