<svg width="1012" height="171" viewBox="0 0 1012 171" fill="none" xmlns="http://www.w3.org/2000/svg">
<mask id="mask0_23_864" style="mask-type:alpha" maskUnits="userSpaceOnUse" x="0" y="0" width="1012" height="171">
<rect width="1012" height="171" fill="white"/>
</mask>
<g mask="url(#mask0_23_864)">
<path d="M23.1578 79.1629C21.2924 65.6124 1.70766 65.6123 -0.157776 79.1628L-4.72535 112.342C-4.90967 113.681 -6.46729 114.326 -7.54436 113.51L-34.2352 93.2782C-45.1359 85.0157 -58.9844 98.864 -50.7218 109.765L-30.4905 136.456C-29.6741 137.533 -30.3192 139.09 -31.6581 139.275L-64.8371 143.842C-78.3876 145.708 -78.3877 165.292 -64.8372 167.158L-31.6582 171.725C-30.3192 171.91 -29.6741 173.467 -30.4905 174.544L-50.7218 201.235C-58.9843 212.136 -45.136 225.984 -34.2352 217.722L-7.54437 197.49C-6.46729 196.674 -4.90967 197.319 -4.72535 198.658L-0.157776 231.837C1.70765 245.388 21.2923 245.388 23.1578 231.837L27.7253 198.658C27.9097 197.319 29.4673 196.674 30.5444 197.49L57.2352 217.722C68.1359 225.984 81.9844 212.136 73.7218 201.235L53.4905 174.544C52.674 173.467 53.3192 171.91 54.6581 171.725L87.8371 167.158C101.388 165.292 101.388 145.708 87.8371 143.842L54.6581 139.275C53.3192 139.09 52.674 137.533 53.4905 136.456L73.7218 109.765C81.9844 98.8641 68.1359 85.0156 57.2352 93.2782L30.5444 113.51C29.4673 114.326 27.9097 113.681 27.7253 112.342L23.1578 79.1629Z" fill="#994AFC" stroke="#FCDC4D" stroke-width="10"/>
<path d="M1027.12 10.6916C1028.9 31.6687 1013.03 50.07 991.87 51.3041C972.328 52.428 954.703 37.557 952.494 18.0799C950.121 -3.00645 965.59 -21.7463 986.595 -23.4999C1007.23 -25.2749 1025.4 -9.94434 1027.12 10.6916Z" stroke="#5105B3" stroke-width="4" stroke-linecap="round" stroke-linejoin="round"/>
<path d="M990.973 34.7494C980.061 35.3548 970.203 27.0367 968.992 16.2029" stroke="#EF2D56" stroke-width="4" stroke-linecap="round" stroke-linejoin="round"/>
</g>
</svg>
